<?xml version="1.0" encoding="UTF-8"?>
<svg id="Layer_2" xmlns="http://www.w3.org/2000/svg" viewBox="0 0 1004.23 184.84">
  <defs>
    <style>
      .cls-1 {
        fill: #1c1f4e;
      }

      .cls-2 {
        fill: #08f;
      }
    </style>
  </defs>
  <g id="Layer_1-2" data-name="Layer_1">
    <g>
      <path class="cls-2" d="M93.91,143.29c-9.4,0-17.66-3.33-23.04-6.21-3.64-1.95-7.23-4.37-10.69-7.21-2.98-2.44-6.68-5.48-9.33-9.48-5.22-7.87-8.06-15.76-8.7-24.12-.29-3.83-.16-7.78.4-11.72.2-1.44.47-2.92.78-4.4.26-1.23,2.79-12.09,11.85-22.14,8.52-9.46,24.47-19.81,52.03-15.45.15.02.3.05.45.08.9.19,9.06,2.11,17.5,9.15,6.86,5.72,15.11,15.92,17.9,33.02,9.32,1.34,25.66,5.69,39.42,19.8,3.14,3.22,3.07,8.37-.15,11.51-3.22,3.14-8.37,3.07-11.51-.15-15.06-15.45-34.73-15.47-34.98-15.47-.05,0-.11,0-.16,0-4.28,0-7.8-3.32-8.08-7.61-1.84-28.05-21.3-33.8-23.23-34.3-16.2-2.5-28.67.97-37.1,10.31-6.23,6.91-8,14.55-8.02,14.62-.23,1.1-.43,2.22-.58,3.3-.39,2.78-.49,5.54-.29,8.2.43,5.59,2.34,10.79,6.04,16.37,1.3,1.96,3.73,3.95,6.09,5.89,2.64,2.16,5.34,3.99,8.04,5.44,3.87,2.07,9.83,4.5,16.18,4.27,5.45-.19,10.94-.15,16.23-.11,2.26.02,4.52.04,6.77.04h17.99c4.5,0,8.14,3.64,8.14,8.14s-3.64,8.14-8.14,8.14h-17.99c-2.3,0-4.6-.02-6.9-.04-5.13-.04-10.43-.08-15.52.1-.47.02-.94.02-1.4.02Z"/>
      <path class="cls-2" d="M93.27,184.84c-11.47,0-23.05-.04-34.52-.19-17.11-.23-39.41-7.48-50.72-27.16-7.62-13.27-8.5-29.18-2.4-43.67,6.21-14.73,18.43-25.42,33.53-29.31,0,0,.01,0,.02,0l7.14-1.84c4.36-1.12,8.79,1.5,9.91,5.86,1.12,4.35-1.5,8.79-5.86,9.91-3.96,1.02-6,1.54-7.16,1.81v.03c-10.13,2.61-18.36,9.85-22.58,19.86-4.11,9.76-3.56,20.41,1.51,29.24,6.51,11.33,20.96,18.78,36.82,18.99,17.92.24,36.17.2,53.82.17,6.56-.01,13.11-.03,19.67-.03,19.88,0,36.05-16.17,36.05-36.05V52.33c0-19.88-16.17-36.05-36.05-36.05H52.33c-19.88,0-36.05,16.17-36.05,36.05,0,4.5-3.64,8.14-8.14,8.14S0,56.82,0,52.33C0,23.47,23.47,0,52.33,0h80.13c28.85,0,52.33,23.47,52.33,52.33v80.13c0,28.85-23.47,52.33-52.33,52.33-6.54,0-13.09.01-19.63.03-6.45.01-12.98.03-19.55.03Z"/>
    </g>
    <g>
      <path class="cls-1" d="M255.86,57.1c-1.87-1.87-2.8-4.18-2.8-6.94s.93-5.07,2.8-6.94,4.18-2.8,6.94-2.8,4.94.93,6.81,2.8c1.87,1.87,2.8,4.19,2.8,6.94s-.93,5.07-2.8,6.94c-1.87,1.87-4.14,2.8-6.81,2.8s-5.07-.93-6.94-2.8ZM270.28,69.65v73.58h-15.22v-73.58h15.22Z"/>
      <path class="cls-1" d="M411.17,50.42l-27.51,92.81h-17.23l-19.5-70.24-20.7,70.24-17.09.13-26.31-92.95h16.16l19.23,75.59,20.83-75.59h17.09l19.36,75.18,19.36-75.18h16.29Z"/>
      <path class="cls-1" d="M490.63,112.12h-56.22c.44,5.88,2.62,10.6,6.54,14.16,3.92,3.56,8.72,5.34,14.42,5.34,8.19,0,13.98-3.43,17.36-10.28h16.43c-2.23,6.77-6.26,12.31-12.09,16.63-5.83,4.32-13.07,6.48-21.7,6.48-7.03,0-13.33-1.58-18.9-4.74-5.56-3.16-9.93-7.61-13.09-13.35-3.16-5.74-4.74-12.4-4.74-19.96s1.54-14.22,4.61-19.96,7.39-10.17,12.95-13.29c5.56-3.12,11.95-4.67,19.16-4.67s13.13,1.51,18.56,4.54c5.43,3.03,9.66,7.28,12.69,12.75,3.03,5.48,4.54,11.77,4.54,18.9,0,2.76-.18,5.25-.53,7.48ZM475.27,99.83c-.09-5.61-2.09-10.1-6.01-13.49-3.92-3.38-8.77-5.07-14.56-5.07-5.25,0-9.75,1.67-13.49,5.01s-5.97,7.86-6.68,13.55h40.73Z"/>
      <path class="cls-1" d="M505.65,86.48c3.07-5.7,7.26-10.13,12.55-13.29,5.3-3.16,11.15-4.74,17.56-4.74,5.79,0,10.84,1.14,15.16,3.41,4.32,2.27,7.77,5.1,10.35,8.48v-10.68h15.36v73.58h-15.36v-10.95c-2.58,3.47-6.1,6.37-10.55,8.68-4.45,2.31-9.53,3.47-15.22,3.47-6.32,0-12.11-1.62-17.36-4.87-5.25-3.25-9.41-7.79-12.49-13.62-3.07-5.83-4.61-12.44-4.61-19.83s1.54-13.93,4.61-19.63ZM558.13,93.15c-2.09-3.74-4.83-6.59-8.21-8.55-3.38-1.96-7.03-2.94-10.95-2.94s-7.57.96-10.95,2.87c-3.39,1.92-6.12,4.72-8.21,8.41-2.09,3.7-3.14,8.08-3.14,13.15s1.05,9.53,3.14,13.35c2.09,3.83,4.85,6.74,8.28,8.75,3.43,2,7.06,3,10.88,3s7.57-.98,10.95-2.94c3.38-1.96,6.12-4.83,8.21-8.61,2.09-3.78,3.14-8.21,3.14-13.29s-1.05-9.48-3.14-13.22Z"/>
      <path class="cls-1" d="M614.42,82.07v40.73c0,2.76.64,4.74,1.94,5.94,1.29,1.2,3.49,1.8,6.61,1.8h9.35v12.69h-12.02c-6.86,0-12.11-1.6-15.76-4.81-3.65-3.21-5.48-8.41-5.48-15.63v-40.73h-8.68v-12.42h8.68v-18.3h15.36v18.3h17.9v12.42h-17.9Z"/>
      <path class="cls-1" d="M699.42,72.05c4.41,2.4,7.88,5.97,10.42,10.68,2.54,4.72,3.81,10.42,3.81,17.09v43.4h-15.09v-41.13c0-6.59-1.65-11.64-4.94-15.16-3.29-3.52-7.79-5.28-13.49-5.28s-10.22,1.76-13.55,5.28c-3.34,3.52-5.01,8.57-5.01,15.16v41.13h-15.22V44.41h15.22v33.79c2.58-3.11,5.85-5.52,9.81-7.21,3.96-1.69,8.3-2.54,13.02-2.54,5.61,0,10.62,1.2,15.02,3.61Z"/>
      <path class="cls-1" d="M799.91,112.12h-56.22c.44,5.88,2.62,10.6,6.54,14.16,3.92,3.56,8.72,5.34,14.42,5.34,8.19,0,13.98-3.43,17.36-10.28h16.43c-2.23,6.77-6.26,12.31-12.09,16.63-5.83,4.32-13.07,6.48-21.7,6.48-7.03,0-13.33-1.58-18.9-4.74-5.56-3.16-9.93-7.61-13.09-13.35-3.16-5.74-4.74-12.4-4.74-19.96s1.54-14.22,4.61-19.96,7.39-10.17,12.95-13.29c5.56-3.12,11.95-4.67,19.16-4.67s13.13,1.51,18.56,4.54c5.43,3.03,9.66,7.28,12.69,12.75,3.03,5.48,4.54,11.77,4.54,18.9,0,2.76-.18,5.25-.53,7.48ZM784.55,99.83c-.09-5.61-2.09-10.1-6.01-13.49-3.92-3.38-8.77-5.07-14.56-5.07-5.25,0-9.75,1.67-13.49,5.01-3.74,3.34-5.97,7.86-6.68,13.55h40.73Z"/>
      <path class="cls-1" d="M839.5,71.59c3.69-2.09,8.08-3.14,13.15-3.14v15.76h-3.87c-5.97,0-10.48,1.51-13.55,4.54-3.07,3.03-4.61,8.28-4.61,15.76v38.73h-15.22v-73.58h15.22v10.68c2.22-3.74,5.18-6.65,8.88-8.75Z"/>
      <path class="cls-1" d="M865.88,141.36c-1.87-1.87-2.8-4.18-2.8-6.94s.93-5.07,2.8-6.94,4.18-2.8,6.94-2.8,4.94.93,6.81,2.8,2.8,4.19,2.8,6.94-.93,5.07-2.8,6.94-4.14,2.8-6.81,2.8-5.07-.93-6.94-2.8Z"/>
      <path class="cls-1" d="M899.66,57.1c-1.87-1.87-2.8-4.18-2.8-6.94s.93-5.07,2.8-6.94,4.18-2.8,6.94-2.8,4.94.93,6.81,2.8,2.8,4.19,2.8,6.94-.93,5.07-2.8,6.94-4.14,2.8-6.81,2.8-5.07-.93-6.94-2.8ZM914.09,69.65v73.58h-15.22v-73.58h15.22Z"/>
      <path class="cls-1" d="M947.2,139.69c-5.61-3.16-10.02-7.61-13.22-13.35-3.21-5.74-4.81-12.4-4.81-19.96s1.65-14.11,4.94-19.9c3.29-5.79,7.79-10.24,13.49-13.35,5.7-3.12,12.06-4.67,19.1-4.67s13.4,1.56,19.1,4.67c5.7,3.12,10.19,7.57,13.49,13.35,3.29,5.79,4.94,12.42,4.94,19.9s-1.69,14.11-5.07,19.9c-3.38,5.79-7.99,10.26-13.82,13.42-5.83,3.16-12.26,4.74-19.3,4.74s-13.22-1.58-18.83-4.74ZM977.05,128.41c3.43-1.87,6.21-4.67,8.35-8.41,2.14-3.74,3.21-8.28,3.21-13.62s-1.03-9.86-3.07-13.55c-2.05-3.69-4.76-6.48-8.15-8.35-3.38-1.87-7.03-2.8-10.95-2.8s-7.55.93-10.88,2.8c-3.34,1.87-5.99,4.65-7.95,8.35-1.96,3.7-2.94,8.21-2.94,13.55,0,7.92,2.02,14.04,6.08,18.36,4.05,4.32,9.15,6.48,15.29,6.48,3.92,0,7.59-.94,11.02-2.81Z"/>
    </g>
  </g>
</svg>